<svg xmlns="http://www.w3.org/2000/svg" viewBox="0 0 48 48" role="img" aria-label="elm-m3e">
  <defs>
    <linearGradient id="g" x1="0" y1="0" x2="1" y2="1">
      <stop offset="0" stop-color="#8A6FE0"/>
      <stop offset="1" stop-color="#5B3F9E"/>
    </linearGradient>
  </defs>
  <rect x="1" y="1" width="46" height="46" rx="13" fill="url(#g)"/>
  <!-- Material "palette" glyph: white body with four paint dots -->
  <g transform="translate(10 10) scale(1.17)">
    <path fill="#FFFFFF" d="M12 2C6.49 2 2 6.49 2 12s4.49 10 10 10c1.38 0 2.5-1.12 2.5-2.5 0-.61-.23-1.16-.64-1.67-.08-.1-.13-.21-.13-.33 0-.28.22-.5.5-.5H16c3.31 0 6-2.69 6-6 0-4.96-4.49-9-10-9z"/>
    <circle cx="6.5" cy="12.5" r="1.6" fill="#E5484D"/>
    <circle cx="9.7" cy="7.5" r="1.6" fill="#F5A623"/>
    <circle cx="14.3" cy="7.5" r="1.6" fill="#30A46C"/>
    <circle cx="17.5" cy="12.5" r="1.6" fill="#4590E6"/>
  </g>
</svg>
